<?xml version="1.0" standalone="no"?>
<!DOCTYPE svg PUBLIC "-//W3C//DTD SVG 20010904//EN"
 "http://www.w3.org/TR/2001/REC-SVG-20010904/DTD/svg10.dtd">
<svg version="1.0" xmlns="http://www.w3.org/2000/svg"
 width="108.000000pt" height="104.000000pt" viewBox="0 0 108.000000 104.000000"
 preserveAspectRatio="xMidYMid meet">

<g transform="translate(0.000000,104.000000) scale(0.100000,-0.100000)"
fill="#000000" stroke="none">
<path d="M482 632 l-52 -47 0 -87 0 -88 41 0 c22 0 49 5 59 10 13 7 21 7 25 0
3 -5 28 -10 56 -10 l49 0 0 88 0 87 -55 45 c-30 25 -58 46 -62 47 -4 1 -32
-19 -61 -45z m108 -24 c39 -33 40 -33 40 -105 0 -68 -1 -73 -22 -73 -12 0 -30
8 -40 17 -18 16 -21 16 -47 0 -54 -32 -61 -25 -61 57 0 74 0 75 37 105 21 17
41 31 46 31 5 0 26 -15 47 -32z"/>
</g>
</svg>
